{
	"asset":{
		"generator":"Khronos glTF Blender I/O v3.6.27",
		"version":"2.0"
	},
	"scene":0,
	"scenes":[
		{
			"name":"Scene",
			"nodes":[
				0
			]
		}
	],
	"nodes":[
		{
			"mesh":0,
			"name":"sidewalk",
			"scale":[
				2,
				1,
				1
			],
			"translation":[
				-48,
				0,
				0
			]
		}
	],
	"materials":[
		{
			"doubleSided":true,
			"name":"concrete",
			"pbrMetallicRoughness":{
				"baseColorFactor":[
					0.7304601073265076,
					0.7304602861404419,
					0.6724433302879333,
					1
				],
				"metallicFactor":0,
				"roughnessFactor":0.5
			}
		}
	],
	"meshes":[
		{
			"name":"Plane.001",
			"primitives":[
				{
					"attributes":{
						"POSITION":0,
						"NORMAL":1,
						"TEXCOORD_0":2,
						"TEXCOORD_1":3
					},
					"indices":4,
					"material":0
				}
			]
		}
	],
	"accessors":[
		{
			"bufferView":0,
			"componentType":5126,
			"count":600,
			"max":[
				49,
				0.10000000149011612,
				0.9950000047683716
			],
			"min":[
				-1,
				0,
				-1.2000000476837158
			],
			"type":"VEC3"
		},
		{
			"bufferView":1,
			"componentType":5126,
			"count":600,
			"type":"VEC3"
		},
		{
			"bufferView":2,
			"componentType":5126,
			"count":600,
			"type":"VEC2"
		},
		{
			"bufferView":3,
			"componentType":5126,
			"count":600,
			"type":"VEC2"
		},
		{
			"bufferView":4,
			"componentType":5123,
			"count":900,
			"type":"SCALAR"
		}
	],
	"bufferViews":[
		{
			"buffer":0,
			"byteLength":7200,
			"byteOffset":0,
			"target":34962
		},
		{
			"buffer":0,
			"byteLength":7200,
			"byteOffset":7200,
			"target":34962
		},
		{
			"buffer":0,
			"byteLength":4800,
			"byteOffset":14400,
			"target":34962
		},
		{
			"buffer":0,
			"byteLength":4800,
			"byteOffset":19200,
			"target":34962
		},
		{
			"buffer":0,
			"byteLength":1800,
			"byteOffset":24000,
			"target":34963
		}
	],
	"buffers":[
		{
			"byteLength":25800,
			"uri":"data:application/octet-stream;base64,"
		}
	]
}
