{
    "asset" : {
        "generator" : "Khronos glTF Blender I/O v3.4.50",
        "version" : "2.0"
    },
    "extensionsUsed" : [
        "KHR_materials_emissive_strength"
    ],
    "scene" : 0,
    "scenes" : [
        {
            "name" : "Scene",
            "nodes" : [
                0
            ]
        }
    ],
    "nodes" : [
        {
            "mesh" : 0,
            "name" : "truck",
            "rotation" : [
                -0.5000000596046448,
                -0.4999999403953552,
                0.4999999403953552,
                0.5000000596046448
            ],
            "scale" : [
                0.030000008642673492,
                0.5099999904632568,
                0.030000008642673492
            ],
            "translation" : [
                0.19311688840389252,
                0.31696343421936035,
                0.10735790431499481
            ]
        }
    ],
    "materials" : [
        {
            "doubleSided" : true,
            "name" : "black",
            "pbrMetallicRoughness" : {
                "baseColorFactor" : [
                    0,
                    0,
                    0,
                    1
                ],
                "metallicFactor" : 0
            }
        },
        {
            "doubleSided" : true,
            "name" : "gray",
            "pbrMetallicRoughness" : {
                "baseColorFactor" : [
                    0.11944001913070679,
                    0.1134304404258728,
                    0.1523246169090271,
                    1
                ],
                "metallicFactor" : 0.5052631497383118,
                "roughnessFactor" : 0.5
            }
        },
        {
            "doubleSided" : true,
            "name" : "windows",
            "pbrMetallicRoughness" : {
                "baseColorFactor" : [
                    0.07323513180017471,
                    0.07323513180017471,
                    0.07323513180017471,
                    1
                ],
                "roughnessFactor" : 0.5
            }
        },
        {
            "doubleSided" : true,
            "emissiveFactor" : [
                1,
                1,
                1
            ],
            "extensions" : {
                "KHR_materials_emissive_strength" : {
                    "emissiveStrength" : 15.19999885559082
                }
            },
            "name" : "c_headlight",
            "pbrMetallicRoughness" : {
                "baseColorFactor" : [
                    0.800000011920929,
                    0.800000011920929,
                    0.800000011920929,
                    1
                ],
                "metallicFactor" : 0,
                "roughnessFactor" : 0.5
            }
        },
        {
            "doubleSided" : true,
            "name" : "bronze",
            "pbrMetallicRoughness" : {
                "baseColorFactor" : [
                    0.6104957461357117,
                    0.21223051846027374,
                    0.031896110624074936,
                    1
                ],
                "metallicFactor" : 0.761403501033783,
                "roughnessFactor" : 0.5
            }
        }
    ],
    "meshes" : [
        {
            "name" : "Cylinder.001",
            "primitives" : [
                {
                    "attributes" : {
                        "POSITION" : 0,
                        "TEXCOORD_0" : 1,
                        "NORMAL" : 2
                    },
                    "indices" : 3,
                    "material" : 0
                },
                {
                    "attributes" : {
                        "POSITION" : 4,
                        "TEXCOORD_0" : 5,
                        "NORMAL" : 6
                    },
                    "indices" : 7,
                    "material" : 1
                },
                {
                    "attributes" : {
                        "POSITION" : 8,
                        "TEXCOORD_0" : 9,
                        "NORMAL" : 10
                    },
                    "indices" : 11,
                    "material" : 2
                },
                {
                    "attributes" : {
                        "POSITION" : 12,
                        "TEXCOORD_0" : 13,
                        "NORMAL" : 14
                    },
                    "indices" : 15,
                    "material" : 3
                },
                {
                    "attributes" : {
                        "POSITION" : 16,
                        "TEXCOORD_0" : 17,
                        "NORMAL" : 18
                    },
                    "indices" : 19,
                    "material" : 4
                }
            ]
        }
    ],
    "accessors" : [
        {
            "bufferView" : 0,
            "componentType" : 5126,
            "count" : 28912,
            "max" : [
                34.739768981933594,
                1.7809234857559204,
                65.46273803710938
            ],
            "min" : [
                -10.402833938598633,
                -1.3767060041427612,
                -48.560367584228516
            ],
            "type" : "VEC3"
        },
        {
            "bufferView" : 1,
            "componentType" : 5126,
            "count" : 28912,
            "type" : "VEC2"
        },
        {
            "bufferView" : 2,
            "componentType" : 5126,
            "count" : 28912,
            "type" : "VEC3"
        },
        {
            "bufferView" : 3,
            "componentType" : 5123,
            "count" : 117459,
            "type" : "SCALAR"
        },
        {
            "bufferView" : 4,
            "componentType" : 5126,
            "count" : 1468,
            "max" : [
                31.918912887573242,
                1.658263921737671,
                64.92594909667969
            ],
            "min" : [
                1.0042438507080078,
                -1.0867360830307007,
                -44.96036911010742
            ],
            "type" : "VEC3"
        },
        {
            "bufferView" : 5,
            "componentType" : 5126,
            "count" : 1468,
            "type" : "VEC2"
        },
        {
            "bufferView" : 6,
            "componentType" : 5126,
            "count" : 1468,
            "type" : "VEC3"
        },
        {
            "bufferView" : 7,
            "componentType" : 5123,
            "count" : 2472,
            "type" : "SCALAR"
        },
        {
            "bufferView" : 8,
            "componentType" : 5126,
            "count" : 61,
            "max" : [
                29.658056259155273,
                1.7652784585952759,
                18.95918846130371
            ],
            "min" : [
                17.554990768432617,
                -1.3422192335128784,
                -19.909748077392578
            ],
            "type" : "VEC3"
        },
        {
            "bufferView" : 9,
            "componentType" : 5126,
            "count" : 61,
            "type" : "VEC2"
        },
        {
            "bufferView" : 10,
            "componentType" : 5126,
            "count" : 61,
            "type" : "VEC3"
        },
        {
            "bufferView" : 11,
            "componentType" : 5123,
            "count" : 117,
            "type" : "SCALAR"
        },
        {
            "bufferView" : 12,
            "componentType" : 5126,
            "count" : 64,
            "max" : [
                34.301727294921875,
                1.3409416675567627,
                20.866090774536133
            ],
            "min" : [
                10.541983604431152,
                -0.9178818464279175,
                -43.560359954833984
            ],
            "type" : "VEC3"
        },
        {
            "bufferView" : 13,
            "componentType" : 5126,
            "count" : 64,
            "type" : "VEC2"
        },
        {
            "bufferView" : 14,
            "componentType" : 5126,
            "count" : 64,
            "type" : "VEC3"
        },
        {
            "bufferView" : 15,
            "componentType" : 5123,
            "count" : 96,
            "type" : "SCALAR"
        },
        {
            "bufferView" : 16,
            "componentType" : 5126,
            "count" : 1391,
            "max" : [
                2.488626480102539,
                1.7105730772018433,
                44.54194259643555
            ],
            "min" : [
                -4.435964584350586,
                -1.2559651136398315,
                -32.00468826293945
            ],
            "type" : "VEC3"
        },
        {
            "bufferView" : 17,
            "componentType" : 5126,
            "count" : 1391,
            "type" : "VEC2"
        },
        {
            "bufferView" : 18,
            "componentType" : 5126,
            "count" : 1391,
            "type" : "VEC3"
        },
        {
            "bufferView" : 19,
            "componentType" : 5123,
            "count" : 7131,
            "type" : "SCALAR"
        }
    ],
    "bufferViews" : [
        {
            "buffer" : 0,
            "byteLength" : 346944,
            "byteOffset" : 0,
            "target" : 34962
        },
        {
            "buffer" : 0,
            "byteLength" : 231296,
            "byteOffset" : 346944,
            "target" : 34962
        },
        {
            "buffer" : 0,
            "byteLength" : 346944,
            "byteOffset" : 578240,
            "target" : 34962
        },
        {
            "buffer" : 0,
            "byteLength" : 234918,
            "byteOffset" : 925184,
            "target" : 34963
        },
        {
            "buffer" : 0,
            "byteLength" : 17616,
            "byteOffset" : 1160104,
            "target" : 34962
        },
        {
            "buffer" : 0,
            "byteLength" : 11744,
            "byteOffset" : 1177720,
            "target" : 34962
        },
        {
            "buffer" : 0,
            "byteLength" : 17616,
            "byteOffset" : 1189464,
            "target" : 34962
        },
        {
            "buffer" : 0,
            "byteLength" : 4944,
            "byteOffset" : 1207080,
            "target" : 34963
        },
        {
            "buffer" : 0,
            "byteLength" : 732,
            "byteOffset" : 1212024,
            "target" : 34962
        },
        {
            "buffer" : 0,
            "byteLength" : 488,
            "byteOffset" : 1212756,
            "target" : 34962
        },
        {
            "buffer" : 0,
            "byteLength" : 732,
            "byteOffset" : 1213244,
            "target" : 34962
        },
        {
            "buffer" : 0,
            "byteLength" : 234,
            "byteOffset" : 1213976,
            "target" : 34963
        },
        {
            "buffer" : 0,
            "byteLength" : 768,
            "byteOffset" : 1214212,
            "target" : 34962
        },
        {
            "buffer" : 0,
            "byteLength" : 512,
            "byteOffset" : 1214980,
            "target" : 34962
        },
        {
            "buffer" : 0,
            "byteLength" : 768,
            "byteOffset" : 1215492,
            "target" : 34962
        },
        {
            "buffer" : 0,
            "byteLength" : 192,
            "byteOffset" : 1216260,
            "target" : 34963
        },
        {
            "buffer" : 0,
            "byteLength" : 16692,
            "byteOffset" : 1216452,
            "target" : 34962
        },
        {
            "buffer" : 0,
            "byteLength" : 11128,
            "byteOffset" : 1233144,
            "target" : 34962
        },
        {
            "buffer" : 0,
            "byteLength" : 16692,
            "byteOffset" : 1244272,
            "target" : 34962
        },
        {
            "buffer" : 0,
            "byteLength" : 14262,
            "byteOffset" : 1260964,
            "target" : 34963
        }
    ],
    "buffers" : [
        {
            "byteLength" : 1275228,
            "uri" : "data:application/octet-stream;base64,"
        }
    ]
}
