{
	"asset":{
		"generator":"Khronos glTF Blender I/O v3.6.27",
		"version":"2.0"
	},
	"scene":0,
	"scenes":[
		{
			"name":"Scene",
			"nodes":[
				0
			]
		}
	],
	"nodes":[
		{
			"mesh":0,
			"name":"van",
			"translation":[
				0,
				3.4000000953674316,
				4.193910172034521e-06
			]
		}
	],
	"materials":[
		{
			"doubleSided":true,
			"name":"Material",
			"pbrMetallicRoughness":{
				"baseColorFactor":[
					0.8069523572921753,
					0.26635536551475525,
					0.03688953444361687,
					1
				],
				"metallicFactor":0,
				"roughnessFactor":0.5
			}
		},
		{
			"doubleSided":true,
			"name":"Window",
			"pbrMetallicRoughness":{
				"baseColorFactor":[
					0,
					0,
					0,
					1
				],
				"metallicFactor":0,
				"roughnessFactor":0.5
			}
		},
		{
			"doubleSided":true,
			"name":"Cream White",
			"pbrMetallicRoughness":{
				"baseColorFactor":[
					0.9734442234039307,
					0.9646853804588318,
					0.904661238193512,
					1
				],
				"metallicFactor":0,
				"roughnessFactor":0.5
			}
		},
		{
			"doubleSided":true,
			"name":"silver",
			"pbrMetallicRoughness":{
				"baseColorFactor":[
					0.4019773006439209,
					0.3967548608779907,
					0.41788506507873535,
					1
				],
				"metallicFactor":0,
				"roughnessFactor":0.5
			}
		},
		{
			"doubleSided":true,
			"name":"surf_board",
			"pbrMetallicRoughness":{
				"baseColorFactor":[
					0.03405030816793442,
					0.2435380071401596,
					0.8000000715255737,
					1
				],
				"metallicFactor":0,
				"roughnessFactor":0.5
			}
		},
		{
			"doubleSided":true,
			"name":"silver.001",
			"pbrMetallicRoughness":{
				"baseColorFactor":[
					0.4019773006439209,
					0.3967548608779907,
					0.41788506507873535,
					1
				],
				"metallicFactor":0,
				"roughnessFactor":0.5
			}
		},
		{
			"doubleSided":true,
			"name":"silver.002",
			"pbrMetallicRoughness":{
				"baseColorFactor":[
					0.4019773006439209,
					0.3967548608779907,
					0.41788506507873535,
					1
				],
				"metallicFactor":0,
				"roughnessFactor":0.5
			}
		}
	],
	"meshes":[
		{
			"name":"Cube.002",
			"primitives":[
				{
					"attributes":{
						"POSITION":0,
						"NORMAL":1,
						"TEXCOORD_0":2
					},
					"indices":3,
					"material":0
				},
				{
					"attributes":{
						"POSITION":4,
						"NORMAL":5,
						"TEXCOORD_0":6
					},
					"indices":7,
					"material":1
				},
				{
					"attributes":{
						"POSITION":8,
						"NORMAL":9,
						"TEXCOORD_0":10
					},
					"indices":11,
					"material":2
				},
				{
					"attributes":{
						"POSITION":12,
						"NORMAL":13,
						"TEXCOORD_0":14
					},
					"indices":15,
					"material":3
				},
				{
					"attributes":{
						"POSITION":16,
						"NORMAL":17,
						"TEXCOORD_0":18
					},
					"indices":19,
					"material":4
				},
				{
					"attributes":{
						"POSITION":20,
						"NORMAL":21,
						"TEXCOORD_0":22
					},
					"indices":23,
					"material":5
				},
				{
					"attributes":{
						"POSITION":24,
						"NORMAL":25,
						"TEXCOORD_0":26
					},
					"indices":27,
					"material":6
				}
			]
		}
	],
	"accessors":[
		{
			"bufferView":0,
			"componentType":5126,
			"count":509,
			"max":[
				10.263059616088867,
				4.369187355041504,
				2.699995756149292
			],
			"min":[
				-6.436939716339111,
				-1.9546535015106201,
				-2.7000043392181396
			],
			"type":"VEC3"
		},
		{
			"bufferView":1,
			"componentType":5126,
			"count":509,
			"type":"VEC3"
		},
		{
			"bufferView":2,
			"componentType":5126,
			"count":509,
			"type":"VEC2"
		},
		{
			"bufferView":3,
			"componentType":5123,
			"count":1542,
			"type":"SCALAR"
		},
		{
			"bufferView":4,
			"componentType":5126,
			"count":2975,
			"max":[
				8.263059616088867,
				4.369187355041504,
				3.369995594024658
			],
			"min":[
				-6.939877510070801,
				-3.3546535968780518,
				-3.370004177093506
			],
			"type":"VEC3"
		},
		{
			"bufferView":5,
			"componentType":5126,
			"count":2975,
			"type":"VEC3"
		},
		{
			"bufferView":6,
			"componentType":5126,
			"count":2975,
			"type":"VEC2"
		},
		{
			"bufferView":7,
			"componentType":5123,
			"count":6426,
			"type":"SCALAR"
		},
		{
			"bufferView":8,
			"componentType":5126,
			"count":166,
			"max":[
				7.963059902191162,
				4.545346260070801,
				2.699995756149292
			],
			"min":[
				-6.436939716339111,
				-1.054653525352478,
				-2.7000043392181396
			],
			"type":"VEC3"
		},
		{
			"bufferView":9,
			"componentType":5126,
			"count":166,
			"type":"VEC3"
		},
		{
			"bufferView":10,
			"componentType":5126,
			"count":166,
			"type":"VEC2"
		},
		{
			"bufferView":11,
			"componentType":5123,
			"count":384,
			"type":"SCALAR"
		},
		{
			"bufferView":12,
			"componentType":5126,
			"count":650,
			"max":[
				8.263059616088867,
				1.0453464984893799,
				3.369995594024658
			],
			"min":[
				-6.736939907073975,
				-3.3546535968780518,
				-3.370004177093506
			],
			"type":"VEC3"
		},
		{
			"bufferView":13,
			"componentType":5126,
			"count":650,
			"type":"VEC3"
		},
		{
			"bufferView":14,
			"componentType":5126,
			"count":650,
			"type":"VEC2"
		},
		{
			"bufferView":15,
			"componentType":5123,
			"count":1524,
			"type":"SCALAR"
		},
		{
			"bufferView":16,
			"componentType":5126,
			"count":436,
			"max":[
				4.163061618804932,
				4.545346260070801,
				0.9999958276748657
			],
			"min":[
				-2.7369399070739746,
				4.345346450805664,
				-1.0000041723251343
			],
			"type":"VEC3"
		},
		{
			"bufferView":17,
			"componentType":5126,
			"count":436,
			"type":"VEC3"
		},
		{
			"bufferView":18,
			"componentType":5126,
			"count":436,
			"type":"VEC2"
		},
		{
			"bufferView":19,
			"componentType":5123,
			"count":828,
			"type":"SCALAR"
		},
		{
			"bufferView":20,
			"componentType":5126,
			"count":48,
			"max":[
				0.7630600929260254,
				0.6253465414047241,
				2.7799956798553467
			],
			"min":[
				0.08306026458740234,
				0.46534645557403564,
				-2.7800042629241943
			],
			"type":"VEC3"
		},
		{
			"bufferView":21,
			"componentType":5126,
			"count":48,
			"type":"VEC3"
		},
		{
			"bufferView":22,
			"componentType":5126,
			"count":48,
			"type":"VEC2"
		},
		{
			"bufferView":23,
			"componentType":5123,
			"count":72,
			"type":"SCALAR"
		},
		{
			"bufferView":24,
			"componentType":5126,
			"count":48,
			"max":[
				8.043132781982422,
				-0.47465354204177856,
				0.34001314640045166
			],
			"min":[
				7.882986545562744,
				-0.6346535086631775,
				-0.340021550655365
			],
			"type":"VEC3"
		},
		{
			"bufferView":25,
			"componentType":5126,
			"count":48,
			"type":"VEC3"
		},
		{
			"bufferView":26,
			"componentType":5126,
			"count":48,
			"type":"VEC2"
		},
		{
			"bufferView":27,
			"componentType":5123,
			"count":72,
			"type":"SCALAR"
		}
	],
	"bufferViews":[
		{
			"buffer":0,
			"byteLength":6108,
			"byteOffset":0,
			"target":34962
		},
		{
			"buffer":0,
			"byteLength":6108,
			"byteOffset":6108,
			"target":34962
		},
		{
			"buffer":0,
			"byteLength":4072,
			"byteOffset":12216,
			"target":34962
		},
		{
			"buffer":0,
			"byteLength":3084,
			"byteOffset":16288,
			"target":34963
		},
		{
			"buffer":0,
			"byteLength":35700,
			"byteOffset":19372,
			"target":34962
		},
		{
			"buffer":0,
			"byteLength":35700,
			"byteOffset":55072,
			"target":34962
		},
		{
			"buffer":0,
			"byteLength":23800,
			"byteOffset":90772,
			"target":34962
		},
		{
			"buffer":0,
			"byteLength":12852,
			"byteOffset":114572,
			"target":34963
		},
		{
			"buffer":0,
			"byteLength":1992,
			"byteOffset":127424,
			"target":34962
		},
		{
			"buffer":0,
			"byteLength":1992,
			"byteOffset":129416,
			"target":34962
		},
		{
			"buffer":0,
			"byteLength":1328,
			"byteOffset":131408,
			"target":34962
		},
		{
			"buffer":0,
			"byteLength":768,
			"byteOffset":132736,
			"target":34963
		},
		{
			"buffer":0,
			"byteLength":7800,
			"byteOffset":133504,
			"target":34962
		},
		{
			"buffer":0,
			"byteLength":7800,
			"byteOffset":141304,
			"target":34962
		},
		{
			"buffer":0,
			"byteLength":5200,
			"byteOffset":149104,
			"target":34962
		},
		{
			"buffer":0,
			"byteLength":3048,
			"byteOffset":154304,
			"target":34963
		},
		{
			"buffer":0,
			"byteLength":5232,
			"byteOffset":157352,
			"target":34962
		},
		{
			"buffer":0,
			"byteLength":5232,
			"byteOffset":162584,
			"target":34962
		},
		{
			"buffer":0,
			"byteLength":3488,
			"byteOffset":167816,
			"target":34962
		},
		{
			"buffer":0,
			"byteLength":1656,
			"byteOffset":171304,
			"target":34963
		},
		{
			"buffer":0,
			"byteLength":576,
			"byteOffset":172960,
			"target":34962
		},
		{
			"buffer":0,
			"byteLength":576,
			"byteOffset":173536,
			"target":34962
		},
		{
			"buffer":0,
			"byteLength":384,
			"byteOffset":174112,
			"target":34962
		},
		{
			"buffer":0,
			"byteLength":144,
			"byteOffset":174496,
			"target":34963
		},
		{
			"buffer":0,
			"byteLength":576,
			"byteOffset":174640,
			"target":34962
		},
		{
			"buffer":0,
			"byteLength":576,
			"byteOffset":175216,
			"target":34962
		},
		{
			"buffer":0,
			"byteLength":384,
			"byteOffset":175792,
			"target":34962
		},
		{
			"buffer":0,
			"byteLength":144,
			"byteOffset":176176,
			"target":34963
		}
	],
	"buffers":[
		{
			"byteLength":176320,
			"uri":"data:application/octet-stream;base64,"
		}
	]
}
